<svg width="174" height="64" viewBox="0 0 174 64" fill="none" xmlns="http://www.w3.org/2000/svg">
<path d="M31.9699 0C27.7716 -5.0112e-08 23.6143 0.827704 19.7355 2.43586C15.8568 4.04401 12.3324 6.4011 9.36377 9.37259C6.39508 12.3441 4.04021 15.8717 2.43356 19.7541C0.826924 23.6366 -6.33931e-07 27.7978 0 32H4.45922C4.45922 28.3837 5.17081 24.8031 6.55335 21.4622C7.93589 18.1213 9.96231 15.0857 12.5169 12.5287C15.0715 9.9717 18.1043 7.94337 21.442 6.55953C24.7797 5.17568 28.357 4.46342 31.9699 4.46342V0Z" fill="#FF5117"/>
<path d="M31.9699 4.45901C28.3565 4.45901 24.7786 5.17138 21.4403 6.55546C18.102 7.93951 15.0688 9.96816 12.5138 12.5256C9.95879 15.083 7.93206 18.1191 6.54928 21.4605C5.16653 24.8019 4.45483 28.3832 4.45483 32H8.9178C8.9178 28.97 9.51407 25.9695 10.6725 23.17C11.831 20.3706 13.529 17.827 15.6696 15.6844C17.8102 13.5417 20.3514 11.8421 23.1483 10.6826C25.945 9.52302 28.9427 8.92619 31.9699 8.92619V4.45901Z" fill="#F9D81E"/>
<path d="M31.9699 8.91803C28.9417 8.91803 25.9429 9.51507 23.1451 10.675C20.3473 11.835 17.8052 13.5352 15.6639 15.6786C13.5225 17.822 11.8239 20.3665 10.665 23.1669C9.50614 25.9673 8.90967 28.9689 8.90967 32H13.2722C13.2722 29.5423 13.7558 27.1087 14.6954 24.838C15.6351 22.5673 17.0124 20.5041 18.7486 18.7662C20.4849 17.0284 22.5461 15.6498 24.8146 14.7092C27.0832 13.7687 29.5145 13.2846 31.9699 13.2846V8.91803Z" fill="#97CC37"/>
<path d="M31.9698 13.1147C29.4921 13.1147 27.0385 13.6032 24.7495 14.5523C22.4604 15.5014 20.3804 16.8925 18.6284 18.6461C16.8764 20.3998 15.4867 22.4817 14.5385 24.7729C13.5903 27.0641 13.1023 29.52 13.1023 32H17.4291C17.4291 30.0886 17.8052 28.1962 18.5359 26.4302C19.2666 24.6644 20.3377 23.06 21.6879 21.7085C23.0382 20.357 24.6411 19.2849 26.4052 18.5535C28.1695 17.8221 30.0602 17.4456 31.9698 17.4456V13.1147Z" fill="#8177FA"/>
<path d="M32.8537 44.8315C29.0522 44.8315 26.1116 43.802 24.032 41.7427C21.9524 39.6834 20.9126 36.7402 20.9126 32.9128C20.9126 29.1077 21.9524 26.1757 24.032 24.1165C26.134 22.0349 29.0745 20.9941 32.8537 20.9941C34.3741 20.9941 35.7942 21.1508 37.1136 21.4641C38.4327 21.7775 39.5286 22.2251 40.4007 22.8071C40.602 22.9414 40.7026 23.0869 40.7026 23.2436C40.7026 23.3555 40.6578 23.4898 40.5682 23.6464L39.5957 25.3251C39.4615 25.5266 39.3274 25.6273 39.1932 25.6273C39.1261 25.6273 38.9807 25.5713 38.7572 25.4594C37.2365 24.6089 35.4252 24.1836 33.3233 24.1836C30.7741 24.1836 28.7726 24.911 27.3193 26.3659C25.8656 27.7983 25.1389 29.9806 25.1389 32.9128C25.1389 35.8673 25.8433 38.0609 27.2522 39.4933C28.661 40.9256 30.5951 41.642 33.055 41.642C33.9494 41.642 34.8215 41.5748 35.6713 41.4405C36.5208 41.2839 37.2142 41.0712 37.7509 40.8026V34.5915H33.3233C32.876 34.5915 32.5629 34.502 32.3842 34.3229C32.2052 34.1215 32.1158 33.808 32.1158 33.3828V32.5099C32.1158 32.0847 32.2052 31.7936 32.3842 31.637C32.5629 31.4578 32.876 31.3684 33.3233 31.3684H40.4007C40.8926 31.3684 41.2393 31.4914 41.4405 31.7377C41.6641 31.9615 41.776 32.3197 41.776 32.8121V41.6756C41.776 42.0113 41.7424 42.2686 41.6753 42.4478C41.6082 42.6043 41.4628 42.7499 41.2393 42.8842C39.1819 44.1823 36.3867 44.8315 32.8537 44.8315ZM53.7571 44.8315C52.0129 44.8315 50.4364 44.5406 49.0276 43.9586C47.6188 43.3542 46.4894 42.4365 45.6399 41.2055C44.8123 39.952 44.3988 38.3966 44.3988 36.5388C44.3988 33.6514 45.1703 31.4578 46.7132 29.9583C48.2561 28.4588 50.4474 27.7089 53.2875 27.7089C56.105 27.7089 58.2292 28.4362 59.6605 29.8912C61.1138 31.3461 61.8407 33.45 61.8407 36.203C61.8407 36.9865 61.4828 37.3781 60.7674 37.3781H48.4574C48.4574 38.8554 48.9715 39.9969 50.0003 40.8026C51.0289 41.5861 52.4599 41.9777 54.2937 41.9777C56.0602 41.9777 57.648 41.5748 59.0567 40.7691C59.2132 40.6796 59.3361 40.6348 59.4257 40.6348C59.5821 40.6348 59.705 40.7355 59.7947 40.9369L60.5997 42.3806C60.6667 42.5149 60.7003 42.6379 60.7003 42.7499C60.7003 42.9065 60.5997 43.0521 60.3984 43.1864C59.4815 43.7458 58.4865 44.16 57.4132 44.4286C56.3621 44.6972 55.1433 44.8315 53.7571 44.8315ZM57.9498 34.8937C57.9498 33.5058 57.5583 32.4205 56.7759 31.637C56.0154 30.8535 54.864 30.4619 53.321 30.4619C51.7555 30.4619 50.548 30.8648 49.6985 31.6706C48.8709 32.4763 48.4574 33.5507 48.4574 34.8937H57.9498ZM66.3909 44.3279C65.9436 44.3279 65.6195 44.2272 65.4182 44.0257C65.217 43.8243 65.1163 43.5221 65.1163 43.1192V29.119C65.1163 28.7832 65.1721 28.5482 65.284 28.4139C65.3957 28.2796 65.6305 28.2125 65.9884 28.2125H67.9003C68.1461 28.2125 68.3251 28.2683 68.437 28.3803C68.5486 28.4698 68.6157 28.6377 68.6383 28.8839L68.7389 30.0926C70.058 28.5034 71.7912 27.7089 73.9379 27.7089C74.9216 27.7089 75.6708 27.8767 76.1852 28.2125C76.3194 28.3019 76.3975 28.4026 76.42 28.5146C76.4646 28.6041 76.4646 28.7161 76.42 28.8504L75.8163 30.8648C75.7492 31.0885 75.626 31.2005 75.4473 31.2005L75.179 31.1334C74.6423 30.8871 74.0273 30.7641 73.3342 30.7641C72.1937 30.7641 71.2545 31.0885 70.5166 31.7377C69.7787 32.3643 69.4097 33.2262 69.4097 34.3229V43.1192C69.4097 43.5221 69.3091 43.8243 69.1078 44.0257C68.9289 44.2272 68.6047 44.3279 68.1351 44.3279H66.3909ZM80.7475 25.4258C80.2108 25.4258 79.7971 25.2692 79.5064 24.9558C79.2156 24.6425 79.0704 24.262 79.0704 23.8143V23.1093C79.0704 22.6616 79.2156 22.2811 79.5064 21.9677C79.7971 21.6544 80.2108 21.4977 80.7475 21.4977H82.1898C82.7265 21.4977 83.14 21.6544 83.4309 21.9677C83.7438 22.2811 83.9005 22.6616 83.9005 23.1093V23.8143C83.9005 24.262 83.7438 24.6425 83.4309 24.9558C83.14 25.2692 82.7265 25.4258 82.1898 25.4258H80.7475ZM80.6133 44.3279C80.166 44.3279 79.8419 44.2272 79.6406 44.0257C79.4394 43.8243 79.3387 43.5221 79.3387 43.1192V29.4547C79.3387 29.0295 79.4394 28.7161 79.6406 28.5146C79.8419 28.3132 80.166 28.2125 80.6133 28.2125H82.3575C82.8046 28.2125 83.129 28.3132 83.3302 28.5146C83.5315 28.7161 83.6321 29.0295 83.6321 29.4547V43.1192C83.6321 43.5221 83.5315 43.8243 83.3302 44.0257C83.1513 44.2272 82.8271 44.3279 82.3575 44.3279H80.6133ZM94.3562 44.8315C92.1647 44.8315 90.4205 44.1713 89.1236 42.8506C87.8265 41.5077 87.1782 39.6276 87.1782 37.2102C87.1782 35.3301 87.5917 33.6737 88.4192 32.2413C89.2465 30.7864 90.4205 29.6674 91.9411 28.8839C93.4841 28.1005 95.2728 27.7089 97.3079 27.7089C100.148 27.7089 102.551 28.3803 104.519 29.7233V43.4214C104.519 43.7571 104.441 43.9921 104.285 44.1264C104.15 44.2607 103.904 44.3279 103.547 44.3279H101.702C101.456 44.3279 101.266 44.283 101.132 44.1936C101.02 44.0816 100.941 43.9137 100.897 43.69L100.629 42.3806C99.9352 43.2312 99.0744 43.8578 98.0458 44.2607C97.0396 44.6413 95.8095 44.8315 94.3562 44.8315ZM95.9662 41.7763C97.1512 41.7763 98.191 41.4293 99.0856 40.7355C100.002 40.0417 100.461 39.1239 100.461 37.9824V31.4356C99.9913 31.1893 99.5104 31.0214 99.0186 30.9319C98.549 30.8199 97.9675 30.7641 97.2744 30.7641C95.5076 30.7641 94.0878 31.3236 93.0145 32.4428C91.9411 33.562 91.4045 35.1064 91.4045 37.0759C91.4045 38.6875 91.7734 39.8738 92.5114 40.6348C93.2716 41.3957 94.4233 41.7763 95.9662 41.7763ZM115.046 44.8315C113.146 44.8315 111.715 44.3056 110.753 43.2535C109.791 42.2015 109.311 40.7468 109.311 38.8889V31.3684H107.399C106.952 31.3684 106.65 31.29 106.493 31.1334C106.359 30.9768 106.292 30.6857 106.292 30.2605V29.354C106.292 28.9288 106.359 28.6377 106.493 28.4811C106.65 28.3019 106.952 28.2125 107.399 28.2125H109.311V26.3659C109.311 25.8959 109.389 25.4594 109.546 25.0565C109.724 24.6313 109.993 24.1053 110.351 23.4786C110.485 23.21 110.608 23.0421 110.72 22.975C110.854 22.8854 111.077 22.8407 111.39 22.8407H112.497C112.9 22.8407 113.179 22.9414 113.336 23.1428C113.515 23.3219 113.604 23.6017 113.604 23.9822V28.2125H117.562C118.009 28.2125 118.3 28.3019 118.434 28.4811C118.591 28.6377 118.669 28.9288 118.669 29.354V30.2605C118.669 30.6857 118.591 30.9768 118.434 31.1334C118.3 31.29 118.009 31.3684 117.562 31.3684H113.604V38.7546C113.604 39.7841 113.783 40.534 114.141 41.0041C114.499 41.4518 115.114 41.6756 115.986 41.6756C116.5 41.6756 116.936 41.6197 117.294 41.5077C117.651 41.3734 118.043 41.1607 118.468 40.8698C118.579 40.7803 118.703 40.7355 118.837 40.7355C118.971 40.7355 119.105 40.8362 119.239 41.0377L120.212 42.6492C120.301 42.7612 120.346 42.8842 120.346 43.0185C120.346 43.1751 120.234 43.3319 120.011 43.4885C118.624 44.3838 116.969 44.8315 115.046 44.8315ZM124.238 44.3279C123.791 44.3279 123.467 44.2272 123.265 44.0257C123.064 43.8243 122.963 43.5221 122.963 43.1192V29.119C122.963 28.7832 123.019 28.5482 123.131 28.4139C123.243 28.2796 123.478 28.2125 123.836 28.2125H125.747C125.993 28.2125 126.172 28.2683 126.284 28.3803C126.396 28.4698 126.463 28.6377 126.485 28.8839L126.586 30.0926C127.905 28.5034 129.638 27.7089 131.785 27.7089C132.769 27.7089 133.518 27.8767 134.032 28.2125C134.167 28.3019 134.245 28.4026 134.267 28.5146C134.312 28.6041 134.312 28.7161 134.267 28.8504L133.663 30.8648C133.596 31.0885 133.473 31.2005 133.294 31.2005L133.026 31.1334C132.489 30.8871 131.874 30.7641 131.181 30.7641C130.041 30.7641 129.102 31.0885 128.364 31.7377C127.626 32.3643 127.257 33.2262 127.257 34.3229V43.1192C127.257 43.5221 127.156 43.8243 126.955 44.0257C126.776 44.2272 126.452 44.3279 125.982 44.3279H124.238ZM138.595 25.4258C138.058 25.4258 137.644 25.2692 137.354 24.9558C137.063 24.6425 136.918 24.262 136.918 23.8143V23.1093C136.918 22.6616 137.063 22.2811 137.354 21.9677C137.644 21.6544 138.058 21.4977 138.595 21.4977H140.037C140.574 21.4977 140.987 21.6544 141.278 21.9677C141.591 22.2811 141.748 22.6616 141.748 23.1093V23.8143C141.748 24.262 141.591 24.6425 141.278 24.9558C140.987 25.2692 140.574 25.4258 140.037 25.4258H138.595ZM138.46 44.3279C138.013 44.3279 137.689 44.2272 137.488 44.0257C137.286 43.8243 137.186 43.5221 137.186 43.1192V29.4547C137.186 29.0295 137.286 28.7161 137.488 28.5146C137.689 28.3132 138.013 28.2125 138.46 28.2125H140.205C140.652 28.2125 140.976 28.3132 141.177 28.5146C141.379 28.7161 141.479 29.0295 141.479 29.4547V43.1192C141.479 43.5221 141.379 43.8243 141.177 44.0257C140.998 44.2272 140.674 44.3279 140.205 44.3279H138.46ZM152.203 44.8315C150.012 44.8315 148.268 44.1713 146.971 42.8506C145.674 41.5077 145.025 39.6276 145.025 37.2102C145.025 35.3301 145.439 33.6737 146.266 32.2413C147.094 30.7864 148.268 29.6674 149.788 28.8839C151.331 28.1005 153.12 27.7089 155.155 27.7089C157.995 27.7089 160.399 28.3803 162.367 29.7233V43.4214C162.367 43.7571 162.288 43.9921 162.132 44.1264C161.998 44.2607 161.752 44.3279 161.394 44.3279H159.549C159.303 44.3279 159.113 44.283 158.979 44.1936C158.867 44.0816 158.789 43.9137 158.744 43.69L158.476 42.3806C157.782 43.2312 156.921 43.8578 155.893 44.2607C154.887 44.6413 153.657 44.8315 152.203 44.8315ZM153.813 41.7763C154.998 41.7763 156.038 41.4293 156.933 40.7355C157.849 40.0417 158.308 39.1239 158.308 37.9824V31.4356C157.838 31.1893 157.358 31.0214 156.866 30.9319C156.396 30.8199 155.815 30.7641 155.121 30.7641C153.355 30.7641 151.935 31.3236 150.862 32.4428C149.788 33.562 149.252 35.1064 149.252 37.0759C149.252 38.6875 149.621 39.8738 150.359 40.6348C151.119 41.3957 152.27 41.7763 153.813 41.7763Z" fill="#6057CF"/>
</svg>
