<svg width="626" height="346" viewBox="0 0 626 346" fill="none" xmlns="http://www.w3.org/2000/svg">
<path d="M387.801 86.267C376.472 74.9383 363.023 65.9518 348.221 59.8207C333.42 53.6897 317.555 50.5341 301.534 50.5341C285.513 50.5341 269.648 53.6897 254.847 59.8208C240.045 65.9518 226.596 74.9383 215.267 86.267L227.3 98.2997C237.048 88.5511 248.622 80.8181 261.359 75.5422C274.096 70.2663 287.747 67.5509 301.534 67.5509C315.321 67.5509 328.972 70.2663 341.709 75.5422C354.447 80.8181 366.02 88.5511 375.768 98.2997L387.801 86.267Z" fill="#FF5117"/>
<path d="M375.78 98.2878C366.03 88.5377 354.455 80.8034 341.716 75.5267C328.977 70.25 315.323 67.534 301.534 67.534C287.745 67.5341 274.091 70.25 261.352 75.5267C248.613 80.8035 237.038 88.5377 227.288 98.2878L239.331 110.331C247.499 102.162 257.197 95.6823 267.87 91.2614C278.543 86.8406 289.982 84.5652 301.534 84.5652C313.086 84.5652 324.525 86.8406 335.198 91.2614C345.871 95.6823 355.569 102.162 363.737 110.331L375.78 98.2878Z" fill="#F9D81E"/>
<path d="M363.759 110.309C355.588 102.137 345.887 95.6551 335.21 91.2326C324.534 86.8102 313.09 84.534 301.534 84.534C289.978 84.534 278.535 86.8102 267.858 91.2327C257.181 95.6551 247.48 102.137 239.309 110.309L251.08 122.08C257.706 115.455 265.572 110.199 274.229 106.613C282.886 103.027 292.164 101.182 301.534 101.182C310.904 101.182 320.183 103.027 328.839 106.613C337.496 110.199 345.362 115.455 351.988 122.08L363.759 110.309Z" fill="#97CC37"/>
<path d="M352.446 121.622C345.76 114.937 337.823 109.633 329.087 106.015C320.352 102.396 310.989 100.534 301.534 100.534C292.079 100.534 282.716 102.396 273.981 106.015C265.245 109.633 257.308 114.937 250.622 121.622L262.298 133.298C267.45 128.145 273.567 124.058 280.299 121.269C287.032 118.481 294.247 117.045 301.534 117.045C308.821 117.045 316.036 118.481 322.769 121.269C329.501 124.058 335.618 128.145 340.77 133.298L352.446 121.622Z" fill="#8177FA"/>
<path d="M48.168 196C46.7173 196 45.992 195.36 45.992 194.08C45.992 193.568 46.12 193.013 46.376 192.416L80.168 112.288C80.68 111.008 81.2347 110.155 81.832 109.728C82.4293 109.216 83.2827 108.96 84.392 108.96H91.432C92.6267 108.96 93.48 109.216 93.992 109.728C94.5893 110.155 95.144 111.008 95.656 112.288L129.448 192.416C129.704 193.013 129.832 193.568 129.832 194.08C129.832 195.36 129.107 196 127.656 196H116.52C115.411 196 114.6 195.872 114.088 195.616C113.661 195.275 113.235 194.635 112.808 193.696L105.512 175.776H70.184L63.016 193.696C62.5893 194.635 62.12 195.275 61.608 195.616C61.1813 195.872 60.4133 196 59.304 196H48.168ZM101.416 163.872L87.848 130.336L74.28 163.872H101.416ZM147.291 196C145.584 196 144.347 195.616 143.579 194.848C142.811 194.08 142.427 192.928 142.427 191.392V138.016C142.427 136.736 142.64 135.84 143.067 135.328C143.494 134.816 144.39 134.56 145.755 134.56H153.051C153.99 134.56 154.672 134.773 155.099 135.2C155.526 135.541 155.782 136.181 155.867 137.12L156.251 141.728C161.286 135.669 167.899 132.64 176.091 132.64C179.846 132.64 182.704 133.28 184.667 134.56C185.179 134.901 185.478 135.285 185.563 135.712C185.734 136.053 185.734 136.48 185.563 136.992L183.259 144.672C183.003 145.525 182.534 145.952 181.851 145.952L180.827 145.696C178.779 144.757 176.432 144.288 173.787 144.288C169.435 144.288 165.851 145.525 163.035 148C160.219 150.389 158.811 153.675 158.811 157.856V191.392C158.811 192.928 158.427 194.08 157.659 194.848C156.976 195.616 155.739 196 153.947 196H147.291ZM229.213 197.92C217.864 197.92 208.989 195.147 202.589 189.6C196.274 183.968 193.117 175.947 193.117 165.536C193.117 159.051 194.568 153.333 197.469 148.384C200.37 143.435 204.509 139.595 209.885 136.864C215.346 134.048 221.704 132.64 228.957 132.64C234.333 132.64 238.898 133.152 242.653 134.176C246.408 135.2 249.906 136.864 253.149 139.168C253.917 139.68 254.301 140.235 254.301 140.832C254.301 141.344 254.088 141.941 253.661 142.624L250.205 148.64C249.693 149.493 249.224 149.92 248.797 149.92C248.37 149.92 247.773 149.664 247.005 149.152C244.36 147.531 241.714 146.336 239.069 145.568C236.509 144.715 233.437 144.288 229.853 144.288C223.453 144.288 218.418 146.208 214.749 150.048C211.08 153.803 209.245 158.965 209.245 165.536C209.245 172.448 211.08 177.653 214.749 181.152C218.418 184.565 223.794 186.272 230.877 186.272C234.461 186.272 237.576 185.845 240.221 184.992C242.866 184.139 245.426 182.901 247.901 181.28C248.584 180.853 249.138 180.64 249.565 180.64C250.077 180.64 250.589 181.067 251.101 181.92L254.813 188.192C255.154 188.619 255.325 189.088 255.325 189.6C255.325 190.197 254.898 190.795 254.045 191.392C250.632 193.611 246.962 195.232 243.037 196.256C239.112 197.365 234.504 197.92 229.213 197.92ZM300.18 197.92C289.087 197.92 280.511 195.019 274.452 189.216C268.479 183.328 265.492 175.349 265.492 165.28C265.492 155.211 268.479 147.275 274.452 141.472C280.511 135.584 289.087 132.64 300.18 132.64C311.273 132.64 319.849 135.584 325.908 141.472C331.967 147.275 334.996 155.211 334.996 165.28C334.996 175.349 331.967 183.328 325.908 189.216C319.849 195.019 311.273 197.92 300.18 197.92ZM300.18 185.888C306.239 185.888 310.847 184.139 314.004 180.64C317.161 177.141 318.74 172.021 318.74 165.28C318.74 158.624 317.161 153.589 314.004 150.176C310.847 146.677 306.239 144.928 300.18 144.928C294.207 144.928 289.599 146.677 286.356 150.176C283.199 153.589 281.62 158.624 281.62 165.28C281.62 171.936 283.199 177.056 286.356 180.64C289.599 184.139 294.207 185.888 300.18 185.888ZM348.704 164C347.339 164 346.357 163.701 345.76 163.104C345.248 162.507 344.992 161.525 344.992 160.16V155.424C344.992 154.059 345.248 153.077 345.76 152.48C346.357 151.883 347.339 151.584 348.704 151.584H391.584C392.864 151.584 393.803 151.925 394.4 152.608C394.997 153.205 395.296 154.144 395.296 155.424V160.16C395.296 161.44 394.997 162.421 394.4 163.104C393.803 163.701 392.864 164 391.584 164H348.704ZM411.002 124.96C409.21 124.96 408.314 124.277 408.314 122.912C408.314 122.229 408.399 121.717 408.57 121.376L414.586 104.608C415.098 103.413 415.61 102.603 416.122 102.176C416.719 101.749 417.786 101.536 419.322 101.536H428.794C430.927 101.536 431.994 102.261 431.994 103.712C431.994 104.309 431.823 104.949 431.482 105.632L423.034 122.144C422.437 123.253 421.797 124.021 421.114 124.448C420.431 124.789 419.279 124.96 417.658 124.96H411.002ZM413.562 196C411.855 196 410.618 195.616 409.85 194.848C409.167 194.08 408.826 192.928 408.826 191.392V139.296C408.826 137.675 409.167 136.48 409.85 135.712C410.618 134.944 411.855 134.56 413.562 134.56H420.346C422.053 134.56 423.29 134.944 424.058 135.712C424.826 136.48 425.21 137.675 425.21 139.296V191.392C425.21 192.928 424.826 194.08 424.058 194.848C423.375 195.616 422.138 196 420.346 196H413.562ZM443.916 196C442.209 196 440.972 195.616 440.204 194.848C439.436 194.08 439.052 192.928 439.052 191.392V138.016C439.052 136.736 439.265 135.84 439.692 135.328C440.119 134.816 441.015 134.56 442.38 134.56H449.676C450.615 134.56 451.297 134.773 451.724 135.2C452.151 135.541 452.407 136.181 452.492 137.12L452.876 141.728C457.911 135.669 464.524 132.64 472.716 132.64C476.471 132.64 479.329 133.28 481.292 134.56C481.804 134.901 482.103 135.285 482.188 135.712C482.359 136.053 482.359 136.48 482.188 136.992L479.884 144.672C479.628 145.525 479.159 145.952 478.476 145.952L477.452 145.696C475.404 144.757 473.057 144.288 470.412 144.288C466.06 144.288 462.476 145.525 459.66 148C456.844 150.389 455.436 153.675 455.436 157.856V191.392C455.436 192.928 455.052 194.08 454.284 194.848C453.601 195.616 452.364 196 450.572 196H443.916ZM498.702 123.936C496.654 123.936 495.075 123.339 493.966 122.144C492.857 120.949 492.302 119.499 492.302 117.792V115.104C492.302 113.397 492.857 111.947 493.966 110.752C495.075 109.557 496.654 108.96 498.702 108.96H504.206C506.254 108.96 507.833 109.557 508.942 110.752C510.137 111.947 510.734 113.397 510.734 115.104V117.792C510.734 119.499 510.137 120.949 508.942 122.144C507.833 123.339 506.254 123.936 504.206 123.936H498.702ZM498.19 196C496.483 196 495.246 195.616 494.478 194.848C493.71 194.08 493.326 192.928 493.326 191.392V139.296C493.326 137.675 493.71 136.48 494.478 135.712C495.246 134.944 496.483 134.56 498.19 134.56H504.846C506.553 134.56 507.79 134.944 508.558 135.712C509.326 136.48 509.71 137.675 509.71 139.296V191.392C509.71 192.928 509.326 194.08 508.558 194.848C507.875 195.616 506.638 196 504.846 196H498.19ZM552.426 197.92C547.306 197.92 542.314 197.365 537.45 196.256C532.586 195.232 528.405 193.653 524.906 191.52C523.797 190.923 523.242 190.283 523.242 189.6C523.242 189.088 523.413 188.619 523.754 188.192L527.338 181.92C527.765 181.152 528.191 180.768 528.618 180.768C529.045 180.768 529.599 180.981 530.282 181.408C532.842 182.944 535.999 184.224 539.754 185.248C543.509 186.272 546.965 186.784 550.122 186.784C554.986 186.784 558.442 186.315 560.49 185.376C562.623 184.352 563.69 182.56 563.69 180C563.69 178.549 563.263 177.397 562.41 176.544C561.642 175.605 560.447 174.795 558.826 174.112C557.205 173.429 554.517 172.491 550.762 171.296C550.762 171.296 549.354 170.827 546.538 169.888C541.674 168.267 537.791 166.688 534.89 165.152C531.989 163.616 529.727 161.696 528.106 159.392C526.57 157.003 525.802 154.016 525.802 150.432C525.802 144.629 528.234 140.235 533.098 137.248C538.047 134.176 544.447 132.64 552.298 132.64C561.855 132.64 570.09 134.688 577.002 138.784C578.111 139.381 578.666 140.021 578.666 140.704C578.666 141.131 578.453 141.685 578.026 142.368L574.57 147.872C574.058 148.64 573.631 149.024 573.29 149.024C572.949 149.024 572.437 148.811 571.754 148.384C569.535 147.019 566.847 145.952 563.69 145.184C560.618 144.331 557.503 143.904 554.346 143.904C550.079 143.904 546.922 144.373 544.874 145.312C542.911 146.165 541.93 147.872 541.93 150.432C541.93 152.651 543.082 154.4 545.386 155.68C547.775 156.96 551.871 158.496 557.674 160.288L561.898 161.568C568.554 163.701 573.205 166.219 575.85 169.12C578.581 172.021 579.946 175.648 579.946 180C579.946 185.291 577.599 189.6 572.906 192.928C568.298 196.256 561.471 197.92 552.426 197.92Z" fill="#6057CF"/>
<path d="M67.0737 264.72C61.6337 264.72 57.4257 263.248 54.4497 260.304C51.4737 257.36 49.9857 253.152 49.9857 247.68C49.9857 242.208 51.4417 238 54.3537 235.056C57.2977 232.112 61.4897 230.64 66.9297 230.64C69.1057 230.64 71.1217 230.864 72.9777 231.312C74.8337 231.76 76.4017 232.4 77.6817 233.232C77.9697 233.424 78.1137 233.632 78.1137 233.856C78.1137 234.048 78.0337 234.272 77.8737 234.528L76.5297 236.832C76.3377 237.12 76.1617 237.264 76.0017 237.264C75.8737 237.264 75.6497 237.184 75.3297 237.024C73.3137 235.808 70.7377 235.2 67.6017 235.2C63.9857 235.2 61.1537 236.24 59.1057 238.32C57.0577 240.4 56.0337 243.52 56.0337 247.68C56.0337 251.904 57.0897 255.056 59.2017 257.136C61.3137 259.184 64.1617 260.208 67.7457 260.208C71.0737 260.208 73.8097 259.584 75.9537 258.336C76.2737 258.176 76.4817 258.096 76.5777 258.096C76.7697 258.096 76.9617 258.24 77.1537 258.528L78.6417 261.024C78.7377 261.216 78.7857 261.376 78.7857 261.504C78.7857 261.696 78.6097 261.904 78.2577 262.128C75.7937 263.856 72.0657 264.72 67.0737 264.72ZM90.7074 264C90.1634 264 89.8914 263.76 89.8914 263.28C89.8914 263.088 89.9394 262.88 90.0354 262.656L102.707 232.608C102.899 232.128 103.107 231.808 103.331 231.648C103.555 231.456 103.875 231.36 104.291 231.36H106.931C107.379 231.36 107.699 231.456 107.891 231.648C108.115 231.808 108.323 232.128 108.515 232.608L121.187 262.656C121.283 262.88 121.331 263.088 121.331 263.28C121.331 263.76 121.059 264 120.515 264H116.339C115.923 264 115.619 263.952 115.427 263.856C115.267 263.728 115.107 263.488 114.947 263.136L112.211 256.416H98.9634L96.2754 263.136C96.1154 263.488 95.9394 263.728 95.7474 263.856C95.5874 263.952 95.2994 264 94.8834 264H90.7074ZM110.675 251.952L105.587 239.376L100.499 251.952H110.675ZM144.202 264.72C141.93 264.72 139.69 264.48 137.482 264C135.306 263.488 133.562 262.784 132.25 261.888C131.834 261.6 131.626 261.344 131.626 261.12C131.626 260.896 131.69 260.704 131.818 260.544L133.402 258.048C133.594 257.76 133.77 257.616 133.93 257.616C134.09 257.616 134.298 257.696 134.554 257.856C135.738 258.56 137.114 259.136 138.682 259.584C140.25 260 141.834 260.208 143.434 260.208C145.61 260.208 147.242 259.856 148.33 259.152C149.45 258.416 150.01 257.248 150.01 255.648C150.01 254.688 149.802 253.92 149.386 253.344C148.97 252.768 148.362 252.272 147.562 251.856C146.762 251.44 145.466 250.88 143.674 250.176L142.57 249.744C140.49 248.912 138.762 248.112 137.386 247.344C136.042 246.576 134.922 245.568 134.026 244.32C133.13 243.072 132.682 241.552 132.682 239.76C132.682 236.848 133.786 234.608 135.994 233.04C138.234 231.44 141.162 230.64 144.778 230.64C146.986 230.64 148.89 230.848 150.49 231.264C152.122 231.68 153.53 232.32 154.714 233.184C155.098 233.472 155.29 233.744 155.29 234C155.29 234.192 155.226 234.368 155.098 234.528L153.562 237.024C153.37 237.312 153.21 237.456 153.082 237.456C152.954 237.456 152.746 237.36 152.458 237.168C150.41 235.856 147.866 235.2 144.826 235.2C142.81 235.2 141.29 235.568 140.266 236.304C139.242 237.04 138.73 238.208 138.73 239.808C138.73 240.8 138.938 241.6 139.354 242.208C139.802 242.784 140.442 243.28 141.274 243.696C142.106 244.112 143.45 244.672 145.306 245.376L146.506 245.856C148.842 246.784 150.666 247.648 151.978 248.448C153.29 249.216 154.298 250.192 155.002 251.376C155.738 252.528 156.106 254.016 156.106 255.84C156.106 258.592 155.066 260.768 152.986 262.368C150.938 263.936 148.01 264.72 144.202 264.72ZM167.144 264C166.6 264 166.328 263.76 166.328 263.28C166.328 263.088 166.376 262.88 166.472 262.656L179.144 232.608C179.336 232.128 179.544 231.808 179.768 231.648C179.992 231.456 180.312 231.36 180.728 231.36H183.368C183.816 231.36 184.136 231.456 184.328 231.648C184.552 231.808 184.76 232.128 184.952 232.608L197.624 262.656C197.72 262.88 197.768 263.088 197.768 263.28C197.768 263.76 197.496 264 196.952 264H192.776C192.36 264 192.056 263.952 191.864 263.856C191.704 263.728 191.544 263.488 191.384 263.136L188.648 256.416H175.4L172.712 263.136C172.552 263.488 172.376 263.728 172.184 263.856C172.024 263.952 171.736 264 171.32 264H167.144ZM187.112 251.952L182.024 239.376L176.936 251.952H187.112ZM254.602 264.72C249.162 264.72 244.954 263.248 241.978 260.304C239.002 257.36 237.514 253.152 237.514 247.68C237.514 242.24 239.002 238.048 241.978 235.104C244.986 232.128 249.194 230.64 254.602 230.64C256.778 230.64 258.81 230.864 260.698 231.312C262.586 231.76 264.154 232.4 265.402 233.232C265.69 233.424 265.834 233.632 265.834 233.856C265.834 234.016 265.77 234.208 265.642 234.432L264.25 236.832C264.058 237.12 263.866 237.264 263.674 237.264C263.578 237.264 263.37 237.184 263.05 237.024C260.874 235.808 258.282 235.2 255.274 235.2C251.626 235.2 248.762 236.24 246.682 238.32C244.602 240.368 243.562 243.488 243.562 247.68C243.562 251.904 244.57 255.04 246.586 257.088C248.602 259.136 251.37 260.16 254.89 260.16C256.17 260.16 257.418 260.064 258.634 259.872C259.85 259.648 260.842 259.344 261.61 258.96V250.08H255.274C254.634 250.08 254.186 249.952 253.93 249.696C253.674 249.408 253.546 248.96 253.546 248.352V247.104C253.546 246.496 253.674 246.08 253.93 245.856C254.186 245.6 254.634 245.472 255.274 245.472H265.402C266.106 245.472 266.602 245.648 266.89 246C267.21 246.32 267.37 246.832 267.37 247.536V260.208C267.37 260.688 267.322 261.056 267.226 261.312C267.13 261.536 266.922 261.744 266.602 261.936C263.658 263.792 259.658 264.72 254.602 264.72ZM282.499 264C281.859 264 281.395 263.856 281.107 263.568C280.851 263.28 280.723 262.848 280.723 262.272V233.136C280.723 232.528 280.851 232.08 281.107 231.792C281.395 231.504 281.859 231.36 282.499 231.36H302.467C303.107 231.36 303.539 231.488 303.763 231.744C304.019 232 304.147 232.432 304.147 233.04V234.336C304.147 234.944 304.019 235.392 303.763 235.68C303.539 235.936 303.107 236.064 302.467 236.064H286.867V245.376H298.195C298.835 245.376 299.283 245.504 299.539 245.76C299.795 246.016 299.923 246.448 299.923 247.056V248.256C299.923 248.864 299.795 249.312 299.539 249.6C299.283 249.856 298.835 249.984 298.195 249.984H286.867V259.344H302.419C303.059 259.344 303.507 259.488 303.763 259.776C304.019 260.032 304.147 260.464 304.147 261.072V262.368C304.147 262.944 304.019 263.36 303.763 263.616C303.507 263.872 303.059 264 302.419 264H282.499ZM318.796 264C318.156 264 317.692 263.856 317.404 263.568C317.148 263.28 317.02 262.848 317.02 262.272V233.136C317.02 232.528 317.148 232.08 317.404 231.792C317.692 231.504 318.156 231.36 318.796 231.36H331.324C335.036 231.36 337.852 232.224 339.772 233.952C341.724 235.68 342.7 238.24 342.7 241.632C342.7 243.872 342.172 245.792 341.116 247.392C340.06 248.96 338.524 250.144 336.508 250.944L341.836 262.752C341.932 262.944 341.98 263.12 341.98 263.28C341.98 263.76 341.692 264 341.116 264H337.18C336.764 264 336.46 263.952 336.268 263.856C336.076 263.728 335.9 263.488 335.74 263.136L330.892 251.76H323.164V262.272C323.164 262.848 323.02 263.28 322.732 263.568C322.476 263.856 322.012 264 321.34 264H318.796ZM330.076 247.152C332.316 247.152 333.964 246.72 335.02 245.856C336.076 244.992 336.604 243.584 336.604 241.632C336.604 239.712 336.124 238.304 335.164 237.408C334.204 236.512 332.748 236.064 330.796 236.064H323.164V247.152H330.076ZM357.81 264C357.17 264 356.706 263.856 356.418 263.568C356.162 263.28 356.034 262.848 356.034 262.272V233.136C356.034 232.528 356.162 232.08 356.418 231.792C356.706 231.504 357.17 231.36 357.81 231.36H360.354C360.994 231.36 361.458 231.504 361.746 231.792C362.034 232.08 362.178 232.528 362.178 233.136V262.272C362.178 262.848 362.034 263.28 361.746 263.568C361.49 263.856 361.026 264 360.354 264H357.81ZM389.879 229.008C389.207 229.008 388.871 228.752 388.871 228.24C388.871 227.984 388.903 227.792 388.967 227.664L391.223 221.376C391.415 220.928 391.607 220.624 391.799 220.464C392.023 220.304 392.423 220.224 392.999 220.224H396.551C397.351 220.224 397.751 220.496 397.751 221.04C397.751 221.264 397.687 221.504 397.559 221.76L394.391 227.952C394.167 228.368 393.927 228.656 393.671 228.816C393.415 228.944 392.983 229.008 392.375 229.008H389.879ZM376.343 264C375.799 264 375.527 263.76 375.527 263.28C375.527 263.088 375.575 262.88 375.671 262.656L388.343 232.608C388.535 232.128 388.743 231.808 388.967 231.648C389.191 231.456 389.511 231.36 389.927 231.36H392.567C393.015 231.36 393.335 231.456 393.527 231.648C393.751 231.808 393.959 232.128 394.151 232.608L406.823 262.656C406.919 262.88 406.967 263.088 406.967 263.28C406.967 263.76 406.695 264 406.151 264H401.975C401.559 264 401.255 263.952 401.063 263.856C400.903 263.728 400.743 263.488 400.583 263.136L397.847 256.416H384.599L381.911 263.136C381.751 263.488 381.575 263.728 381.383 263.856C381.223 263.952 380.935 264 380.519 264H376.343ZM396.311 251.952L391.223 239.376L386.135 251.952H396.311ZM424.314 264C423.674 264 423.21 263.856 422.922 263.568C422.634 263.28 422.49 262.848 422.49 262.272V236.064H414.09C413.45 236.064 413.002 235.936 412.746 235.68C412.522 235.424 412.41 234.992 412.41 234.384V233.088C412.41 232.48 412.522 232.048 412.746 231.792C413.002 231.504 413.45 231.36 414.09 231.36H437.034C437.674 231.36 438.122 231.504 438.378 231.792C438.634 232.048 438.762 232.48 438.762 233.088V234.384C438.762 234.992 438.634 235.424 438.378 235.68C438.122 235.936 437.674 236.064 437.034 236.064H428.634V262.272C428.634 262.848 428.49 263.28 428.202 263.568C427.946 263.856 427.482 264 426.81 264H424.314ZM452.918 264C452.278 264 451.814 263.856 451.526 263.568C451.27 263.28 451.142 262.848 451.142 262.272V233.136C451.142 232.528 451.27 232.08 451.526 231.792C451.814 231.504 452.278 231.36 452.918 231.36H465.446C469.158 231.36 471.974 232.224 473.894 233.952C475.846 235.68 476.822 238.24 476.822 241.632C476.822 243.872 476.294 245.792 475.238 247.392C474.182 248.96 472.646 250.144 470.63 250.944L475.958 262.752C476.054 262.944 476.102 263.12 476.102 263.28C476.102 263.76 475.814 264 475.238 264H471.302C470.886 264 470.582 263.952 470.39 263.856C470.198 263.728 470.022 263.488 469.862 263.136L465.014 251.76H457.286V262.272C457.286 262.848 457.142 263.28 456.854 263.568C456.598 263.856 456.134 264 455.462 264H452.918ZM464.198 247.152C466.438 247.152 468.086 246.72 469.142 245.856C470.198 244.992 470.726 243.584 470.726 241.632C470.726 239.712 470.246 238.304 469.286 237.408C468.326 236.512 466.87 236.064 464.918 236.064H457.286V247.152H464.198ZM491.933 264C491.293 264 490.829 263.856 490.541 263.568C490.285 263.28 490.157 262.848 490.157 262.272V233.136C490.157 232.528 490.285 232.08 490.541 231.792C490.829 231.504 491.293 231.36 491.933 231.36H494.477C495.117 231.36 495.581 231.504 495.869 231.792C496.157 232.08 496.301 232.528 496.301 233.136V262.272C496.301 262.848 496.157 263.28 495.869 263.568C495.613 263.856 495.149 264 494.477 264H491.933ZM526.737 264.72C521.297 264.72 517.089 263.248 514.113 260.304C511.137 257.36 509.649 253.152 509.649 247.68C509.649 242.208 511.105 238 514.017 235.056C516.961 232.112 521.153 230.64 526.593 230.64C528.769 230.64 530.785 230.864 532.641 231.312C534.497 231.76 536.065 232.4 537.345 233.232C537.633 233.424 537.777 233.632 537.777 233.856C537.777 234.048 537.697 234.272 537.537 234.528L536.193 236.832C536.001 237.12 535.825 237.264 535.665 237.264C535.537 237.264 535.313 237.184 534.993 237.024C532.977 235.808 530.401 235.2 527.265 235.2C523.649 235.2 520.817 236.24 518.769 238.32C516.721 240.4 515.697 243.52 515.697 247.68C515.697 251.904 516.753 255.056 518.865 257.136C520.977 259.184 523.825 260.208 527.409 260.208C530.737 260.208 533.473 259.584 535.617 258.336C535.937 258.176 536.145 258.096 536.241 258.096C536.433 258.096 536.625 258.24 536.817 258.528L538.305 261.024C538.401 261.216 538.449 261.376 538.449 261.504C538.449 261.696 538.273 261.904 537.921 262.128C535.457 263.856 531.729 264.72 526.737 264.72ZM550.371 264C549.827 264 549.555 263.76 549.555 263.28C549.555 263.088 549.603 262.88 549.699 262.656L562.371 232.608C562.563 232.128 562.771 231.808 562.995 231.648C563.219 231.456 563.539 231.36 563.955 231.36H566.595C567.043 231.36 567.363 231.456 567.555 231.648C567.779 231.808 567.987 232.128 568.179 232.608L580.851 262.656C580.947 262.88 580.995 263.088 580.995 263.28C580.995 263.76 580.723 264 580.179 264H576.003C575.587 264 575.283 263.952 575.091 263.856C574.931 263.728 574.771 263.488 574.611 263.136L571.875 256.416H558.627L555.939 263.136C555.779 263.488 555.603 263.728 555.411 263.856C555.251 263.952 554.963 264 554.547 264H550.371ZM570.339 251.952L565.251 239.376L560.163 251.952H570.339Z" fill="#6057CF"/>
</svg>
